#!OML:ASF I:\Actors\actors\Patient Classification 2\Patient 1\Session 1\actor1.ASF
:FULLY-SPECIFIED
:DEGREES
758
root -0.645271 18.5596 6.36109 -3.05835 -1.19937 -1.63695
lowerback 3.78763 0.395974 -1.79051
upperback -2.8234 0.434448 0.294311
thorax -5.06212 0.284251 1.27371
lowerneck -11.2156 -0.662185 1.64554
upperneck 21.2237 -1.31232 0.217386
head 8.436 -0.469195 -0.341565
rclavicle -1.39149e-014 -1.59028e-015
rhumerus -55.2728 -8.48913 -81.1201
rradius 51.4795
rwrist -1.65228
rhand -21.0399 -27.804
rfingers 7.12502
rthumb 5.33587 -57.7168
lclavicle -1.39149e-014 -1.59028e-015
lhumerus -47.0737 6.79193 85.7742
lradius 40.4528
lwrist -9.20585
lhand -9.5537 -26.0481
lfingers 7.12502
lthumb 16.4134 3.27753
rfemur 0 0 0
rtibia 0
rfoot 0 0
rtoes 0
lfemur 1.66639 -6.5902 -13.9122
ltibia 22.501
lfoot -24.3421 12.8373
ltoes -56.1318
759
root -0.643578 18.5603 6.35404 -3.05351 -1.29357 -1.5092
lowerback 3.83961 0.40856 -1.8809
upperback -2.8317 0.443443 0.268093
thorax -5.10151 0.291816 1.29624
lowerneck -11.2295 -0.662945 1.73733
upperneck 21.3201 -1.30562 0.0910921
head 8.46956 -0.470735 -0.399079
rclavicle -7.85199e-015 5.56597e-015
rhumerus -55.3163 -8.94811 -81.0301
rradius 49.8623
rwrist -1.21322
rhand -21.323 -27.2504
rfingers 7.12502
rthumb 5.06247 -57.17
lclavicle -7.85199e-015 5.56597e-015
lhumerus -46.9298 6.92757 85.7705
lradius 40.0313
lwrist -9.56668
lhand -9.63879 -26.1299
lfingers 7.12502
lthumb 16.3315 3.20246
rfemur 0 0 0
rtibia 0
rfoot 0 0
rtoes 0
lfemur 1.7362 -6.71621 -14.1028
ltibia 22.3806
lfoot -24.4437 12.9512
ltoes -55.9536
760
root -0.643083 18.5613 6.34641 -3.00643 -1.38294 -1.51072
lowerback 3.8413 0.416531 -1.85922
upperback -2.83976 0.456015 0.282969
thorax -5.11129 0.297715 1.29842
lowerneck -11.2159 -0.650332 1.8328
upperneck 21.3399 -1.27942 -0.0348285
head 8.47231 -0.463454 -0.454587
rclavicle 7.82715e-015 -7.95139e-016
rhumerus -55.3668 -9.40566 -80.9489
rradius 48.5386
rwrist -1.04752
rhand -21.63 -27.1454
rfingers 7.12502
rthumb 4.76604 -57.0718
lclavicle 7.82715e-015 -7.95139e-016
lhumerus -46.7446 7.14304 85.7239
lradius 39.5021
lwrist -9.98836
lhand -9.74394 -26.3001
lfingers 7.12502
lthumb 16.2302 3.04057
rfemur 0 0 0
rtibia 0
rfoot 0 0
rtoes 0
lfemur 1.74107 -6.87349 -14.1425
ltibia 22.297
lfoot -24.5938 13.0951
ltoes -55.7773
761
root -0.642542 18.5616 6.33938 -2.99197 -1.4522 -1.53814
lowerback 3.86828 0.410701 -1.833
upperback -2.82885 0.45106 0.318665
thorax -5.11514 0.294968 1.321
lowerneck -11.2377 -0.633333 1.83518
upperneck 21.3507 -1.24842 -0.0730479
head 8.47989 -0.452431 -0.464727
rclavicle 3.57812e-015 -1.0138e-014
rhumerus -55.4539 -9.83953 -80.8391
rradius 47.412
rwrist -0.950905
rhand -21.6517 -27.0815
rfingers 7.12502
rthumb 4.74504 -57.0083
lclavicle 3.57812e-015 -1.0138e-014
lhumerus -46.5645 7.36692 85.7085
lradius 39.0705
lwrist -10.3336
lhand -9.7712 -26.3524
lfingers 7.12502
lthumb 16.204 2.99037
rfemur 0 0 0
rtibia 0
rfoot 0 0
rtoes 0
lfemur 1.75584 -7.0562 -14.1652
ltibia 22.2532
lfoot -24.6973 13.3348
ltoes -55.7807
762
root -0.641216 18.5623 6.33222 -3.00487 -1.49364 -1.56776
lowerback 3.93617 0.397495 -1.77886
upperback -2.80937 0.436228 0.332
thorax -5.13249 0.28595 1.30539
lowerneck -11.2543 -0.637996 1.82306
upperneck 21.3369 -1.255 -0.0638698
head 8.47835 -0.455762 -0.460342
rclavicle 2.13694e-015 2.78299e-015
rhumerus -55.5998 -10.2636 -80.7589
rradius 46.5649
rwrist -0.925879
rhand -21.1181 -27.4783
rfingers 7.12502
rthumb 5.26028 -57.393
lclavicle 2.13694e-015 2.78299e-015
lhumerus -46.4808 7.38855 85.7667
lradius 38.8838
lwrist -10.4432
lhand -9.76692 -26.279
lfingers 7.12502
lthumb 16.2081 3.06347
rfemur 0 0 0
rtibia 0
rfoot 0 0
rtoes 0
lfemur 1.7595 -7.05883 -14.1475
ltibia 22.2429
lfoot -24.6773 13.414
ltoes -55.8571
763
root -0.640159 18.5637 6.32453 -3.01211 -1.54485 -1.60729
lowerback 4.00146 0.394993 -1.70325
upperback -2.78879 0.436788 0.336983
thorax -5.1475 0.283602 1.2678
lowerneck -11.231 -0.656541 1.82824
upperneck 21.2976 -1.28169 -0.0616638
head 8.46049 -0.468239 -0.462965
rclavicle -1.21507e-014 4.17448e-015
rhumerus -55.7901 -10.6224 -80.7147
rradius 45.9735
rwrist -0.990522
rhand -20.2836 -28.1835
rfingers 7.12502
rthumb 6.06599 -58.0766
lclavicle -1.21507e-014 4.17448e-015
lhumerus -46.4349 7.3023 85.8626
lradius 38.7634
lwrist -10.4642
lhand -9.7672 -26.141
lfingers 7.12502
lthumb 16.2078 3.2015
rfemur 0 0 0
rtibia 0
rfoot 0 0
rtoes 0
lfemur 1.75019 -7.05858 -14.1154
ltibia 22.2451
lfoot -24.6841 13.4549
ltoes -55.8388
764
root -0.640736 18.5645 6.31559 -3.01908 -1.63038 -1.66194
lowerback 4.08123 0.403744 -1.64927
upperback -2.76813 0.451994 0.365568
thorax -5.17166 0.289819 1.2655
lowerneck -11.2302 -0.663809 1.83561
upperneck 21.2675 -1.28531 -0.0967462
head 8.44974 -0.473278 -0.47619
rclavicle -9.81499e-015 7.15625e-015
rhumerus -56 -10.9393 -80.6415
rradius 45.4701
rwrist -1.00578
rhand -19.5175 -28.7473
rfingers 7.12502
rthumb 6.80561 -58.6179
lclavicle -9.81499e-015 7.15625e-015
lhumerus -46.3769 7.32334 85.9312
lradius 38.6088
lwrist -10.5817
lhand -9.67631 -25.9736
lfingers 7.12502
lthumb 16.2953 3.36174
rfemur 0 0 0
rtibia 0
rfoot 0 0
rtoes 0
lfemur 1.75904 -7.18844 -14.0918
ltibia 22.239
lfoot -24.7437 13.6265
ltoes -55.7663
765
root -0.64231 18.5655 6.30664 -3.017 -1.70485 -1.71275
lowerback 4.14919 0.402743 -1.61763
upperback -2.73945 0.453555 0.404248
thorax -5.18051 0.290082 1.28744
lowerneck -11.2934 -0.643818 1.83584
upperneck 21.2569 -1.24814 -0.144949
head 8.4577 -0.460609 -0.488786
rclavicle -5.36719e-015 8.94531e-015
rhumerus -56.1875 -11.1783 -80.6055
rradius 45.0646
rwrist -1.09504
rhand -18.8971 -29.4095
rfingers 7.12502
rthumb 7.40446 -59.26
lclavicle -5.36719e-015 8.94531e-015
lhumerus -46.2575 7.42808 85.9742
lradius 38.4054
lwrist -10.7993
lhand -9.57834 -25.9804
lfingers 7.12502
lthumb 16.3897 3.34717
rfemur 0 0 0
rtibia 0
rfoot 0 0
rtoes 0
lfemur 1.76026 -7.25971 -14.0477
ltibia 22.2259
lfoot -24.7714 13.7198
ltoes -55.6821
